<svg id="Layer_1" data-name="Layer 1" xmlns="http://www.w3.org/2000/svg" viewBox="0 0 288 288"><defs><style>.cls-1,.cls-27{fill:#f4f2ef;}.cls-2{fill:#f7d0da;}.cls-3{fill:#3c332f;}.cls-4{fill:#3e3632;}.cls-5{fill:#3f3733;}.cls-6{fill:#403733;}.cls-7{fill:#423a36;}.cls-8{fill:#403833;}.cls-9{fill:#433b38;}.cls-10{fill:#463c3b;}.cls-11{fill:#524b47;}.cls-12{fill:#423c38;}.cls-13{fill:#4c4643;}.cls-14{fill:#4a413f;}.cls-15{fill:#59534f;}.cls-16{fill:#3d1613;}.cls-17{fill:#facbcb;}.cls-18{fill:#fdfcfc;}.cls-19{fill:#3b1613;}.cls-20{fill:#a51f22;}.cls-21{fill:#efeae9;}.cls-22{fill:#ece2e0;}.cls-23{fill:#e92e28;}.cls-24{fill:#fff;}.cls-25{fill:#c52621;}.cls-26{fill:#7b0a00;}.cls-27{stroke:#333;stroke-miterlimit:10;stroke-width:4px;}</style></defs><title>NFSW 2D</title><path class="cls-1" d="M188.85,55.61S219.92,30.22,228,44.23c2,5.26,2.86,7.29,2.86,7.29l.42,4.8-6.12,4.37-26.69,3.24Z"/><path class="cls-1" d="M97.75,213a32.29,32.29,0,0,1,4-9.65c5.45-8.56,6-8.89,17.46-9-6.58-1.89-12.84-2.15-18.94-3.34-13.82-2.68-24-10.8-32.71-21.2l.16.13c-.83-1.92-1.65-3.87-4.38-2.61-1.36-2-.54-4.7-2.34-6.52-.94-6.12-4.42-11.38-5.87-17.32l-2.65-6.3c2.38-11.42,4.71-22.86,7.81-34.12C64.85,90.88,70.71,79.58,81.93,72,87.4,63.6,96.53,59.58,104,53.58l.09,1.64c1.59,1.31,3,.19,4.57-.19,13.6-3.36,27.28-6.12,41.42-4.19l4.31-1.37c3,2,6.37,2.59,9.86,2.82h2.81a118.77,118.77,0,0,1,31.06,13.37,9.55,9.55,0,0,0,6,1.23c4.28.66,6.76,3.74,9.3,6.83a97.87,97.87,0,0,1,13.05,20.44c1.41-9.3-1.1-18.68,1.54-27.78,2.21-1.87,4.47-3.58,7.64-2.9l.2,2c.32,2.42-3.1,4-1.58,6.68a10.32,10.32,0,0,1,.06,1.39c1.23,10.18.19,20.27-1.3,30.33-.3,2-.1,4.75-2.52,5.23s-1.44,1.74-1.09,2.78c3.3,9.72,3.81,19.89,4.83,30l-1.5,3.06c-2,3.83-1.44,8.5-4,12.14l-1.49,3.07C225.12,164,222.32,174,220,175.6a107.32,107.32,0,0,1-22.81,13.3,47,47,0,0,1-21.4,3.35c8.55-2,13,4.23,17.08,11.31,2.8,4.86,3.33,10.63,6.41,15.35l-1.39,2.55c-.66,3.17-1.35,6.34,1.46,8.95l-2.65,3.91c-4,.95-5.34,4.95-8.33,7.07-4.2,3-8.23,6.44-13.83,3.25-1.46-.83-2.65-.08-4,.36-10.59,3.48-13.26,1.63-14.66-10.06a5.79,5.79,0,0,0,0,1.6c1,12.24.87,12.44-10.8,12.17-8.12-.19-9-1.14-8.82-9.53,0-2.1,0-4.19,0-6.29,0-.93-1.07-.3-.15-.43.07,0,.12.21.11.66a47.44,47.44,0,0,1-.17,7c-.54,3.28-1.46,6.58-5,7.77s-6.34-.44-8.89-2.74c-1.37-1.24-2.2-3-3.94-4.2-2,6.05-6.13,5.28-10.47,3.21-5-2.38-7.17-7.11-9.35-11.78a14.26,14.26,0,0,1-.6-2.71c-.36,2.5,1.7,4.41,1.12,6.75"/><path class="cls-2" d="M228.86,65.71c-.08,9.53-.14,19.07-.25,28.6,0,1.78.38,4.3-2,4.5-2,.16-1.58-2.3-2.19-3.71C219.7,84.21,214,74,203.39,67.65c-4-.25-4.81-3.37-5.73-6.39,2.16-6,5-11.71,11.92-13.06,8.18-1.59,12.87,3.46,16.42,10,2.82,3.05,5.42-1.68,8.19-.22l1.42,0C235.81,62.7,231.92,63.84,228.86,65.71Z"/><path class="cls-2" d="M83,73.89c-5.39.69-7.32,5.41-9.95,9C68.53,89,64.36,95.45,62,102.8a2.45,2.45,0,0,1-3.17-.16c-2.68-5.21-1-10.81-1.43-16.23-.42-4.75.89-9.61-1-14.24A3.57,3.57,0,0,1,55,69.56L55.16,68c1.1-1.75,2.5-1.38,3.84-.85-.66-1.58-4.86-.16-3.83-3.79a1.16,1.16,0,0,1,0-.81c1-1.32,2.4-.83,3.67-.67,3.12.38.43-1.61.94-2.3,3.92-9,10.33-11,18.1-5.6a60.3,60.3,0,0,1,9.26,7.32c1.46,2.61-.59,4.16-1.89,5.86C83.68,69.15,82.51,71.23,83,73.89Z"/><path class="cls-3" d="M98.15,236.24c-.35-1.61-.79-3.22.3-4.74,3.25,1.78,3.72,5.68,6.2,8.07,3.29,3.18,6.92,5.29,11.75,4.67,1-3-2.79-5.61,0-9,2.5,3.14,4.64,6.35,7.31,9,4.87,4.92,8.7,3.75,10.22-3,.51-2.26.56-4.62,1-6.91s0-4.65,2.79-6.73c0,4.87.54,9.26-.14,13.46-.84,5.27,1.38,6.62,5.93,6.33a30.77,30.77,0,0,1,4.18-.13c5.72.41,8.28-1.25,6.64-7.71A12.47,12.47,0,0,1,157,227.73c.31,3.69.36,7.41,1,11,1.22,7.18,4.18,8.58,10.69,5.34,2.63-1.31,5.2-2.73,8.7-4.58-2,4.55-.91,5.62,2.86,4.61,5.57-1.49,8.9-5.64,12.47-9.65.94-1.06,2.48-5,4-.18-5,10.45-13.47,13.61-24.69,14.79a199.67,199.67,0,0,1-21,1.17c-9.89,0-19.61,1.89-30.16-.69-8.82-2.15-13.42-3.77-16.86-6.66a31.65,31.65,0,0,1-5.78-6.69"/><path class="cls-4" d="M94,215.66c2.52-8.53,5.9-14.9,11.44-20.4-15.41-4.95-31.58-8-37.88-25.43,2.12-.15,3.44,1.13,4.61,2.62,9.65,12.26,23.22,16.43,37.87,18.39,3.92.52,7.84,1.06,11.76,1.58a2.16,2.16,0,0,1,2.15,2.25c0,1.39-1.13,1.87-2.42,1.86a10,10,0,0,0-2.09,0c-3.53.74-7.41-2.71-10.58.49a33.79,33.79,0,0,0-8.77,14.07c-.91,3.06-1,6.43-3.3,9.08"/><path class="cls-5" d="M197.65,61.26l5.73,6.39c-1.38,2.69-3.12,1.09-4.58.24a145.14,145.14,0,0,0-30.17-13.65c-.66-.21-1.05-1.29-1.57-2,6.75-1.24,13.88,4.07,19.46,1.42s9.9-8.25,15.5-11.59c6.29-3.75,12.85-6.87,20.43-3.83,6.15,2.47,9.92,6.53,8.57,13.8-2-4.51-2.87-9.88-9.08-10.74A23.75,23.75,0,0,0,207.74,44c-6.24,3.17-11.64,7.56-17.25,12.8Z"/><path class="cls-4" d="M199.26,218.9c-3.19-.09-3.26-2.9-4.1-4.89-1.17-2.78-1.78-5.81-3.14-8.47-3.41-6.66-6.91-13.25-16.46-11.57-1.88.33-4.69.73-7-3.17,4.09,0,7.36.15,10.61,0a59.52,59.52,0,0,0,32.35-11.57c2.49-1.8,4.56-5,8.47-3.62-3.48,8.39-11.21,11.33-18.75,14.34-4.08,1.63-8.38,2.69-12.69,4C193.77,201.69,200.59,208.56,199.26,218.9Z"/><path class="cls-6" d="M59.45,102.88,62,102.8c-1.83,11.37-6,22.24-7.19,33.77-.13,1.31-1.47.56-2.29.64-.4-5.78-.73-11.6,1.05-17.21,3.49-10.94-2.89-21.22-1.9-32,.58-6.27-1.22-12.91,3.37-18.43l1.23,1c3,3.42,1.07,7.54,1.58,11.31C58.77,88.86,56,96.11,59.45,102.88Z"/><path class="cls-7" d="M234.26,141.89c-3.53-1-2.51-4-2.68-6.34-.35-4.85-.65-9.67-1.42-14.5s-4.51-8.71.14-14.86c3.43-4.53,1.8-13,2.26-19.65.3-4.37-.28-8.84,1.79-13,2.89,2,2.69,5.19,2.88,8.14.41,6.54.26,13.3-1.77,19.36-3.34,9.94-2.41,19.42-.19,29.25C236.1,134,236.37,138.19,234.26,141.89Z"/><path class="cls-5" d="M55,58.06c.33-18.45,11.66-25,27.62-16,5.43,3.08,11,6,14.37,11.68l-.8.64c-3.6,1.16-6.12-1.23-8.9-2.75C82.9,49.25,78.88,46,73.8,44.87c-6.53-1.48-10,.34-12.48,6.56-1.14,2.83-1,6.7-5.37,7.08Z"/><path class="cls-8" d="M150.09,50.84a8.08,8.08,0,0,1-5.3,1.41c-12-.33-23.6,2-35.25,4.33-1.65.34-4.65,2.91-5.44-1.37,11.61-6.33,24.21-7.8,37.14-7.35C144.39,48,147.86,47.74,150.09,50.84Z"/><path class="cls-9" d="M83,73.89c-3.85-1.22-2-3.59-.8-5.32a64.64,64.64,0,0,1,5.41-6.14c1.81-4.44,5.56-6.78,9.56-8.85l-.11.21c1.32-.78,2.62-1.6,4-2.32,2.32-1.23,3.45-.66,3,2.11C99.46,62.9,87.16,64.2,83,73.89Z"/><path class="cls-7" d="M234.19,58c-2.75-.47-5.22,9.09-8.19.22,4.23-.81,5.29-5.55,8.72-7.5C237,53.57,234.87,55.69,234.19,58Z"/><path class="cls-10" d="M60.65,60.58,62.84,63a6.32,6.32,0,0,1-2.34.7c-1.8-.22-3.57-.74-5.35-1.14-.79-.5-1.6-1-2.35-1.5-1.49-1.06-4-2.41-2.89-4.1,1.71-2.58,3.51.09,5.12,1.15l-.1-.2C56.72,59,59.31,58.5,60.65,60.58Z"/><path class="cls-11" d="M199.33,230.4q-7.07-3.69-1.46-8.95C202.29,223.8,199.41,227.33,199.33,230.4Z"/><path class="cls-5" d="M165.42,52.29c-4.08,1.84-9,2.5-11-2.82C163.68,52,172.54,39.63,165.42,52.29Z"/><path class="cls-12" d="M63.51,167l3.84-2.56c2.22,1.75-.8,3.82.38,5.56-2.16-.1-2.47,4-5,2.39-.75-.47-.5-2.53-.71-3.86A1.83,1.83,0,0,1,63.51,167Z"/><path class="cls-13" d="M228.86,65.71,235.61,58c3.66,1.8-.34,3.67.05,5.5C233.55,64.69,232,67.74,228.86,65.71Z"/><path class="cls-7" d="M234.28,72.18c-2.24.07-5.49.82-2.36-3.08a33.16,33.16,0,0,1,3.94-3.6C240.61,69,235,70,234.28,72.18Z"/><path class="cls-7" d="M232.17,164.65c-.89-2.64-10.48-.27-4.09-7.1,2.72,3.33,7.39,2,10.74,4.11C237.36,165,234.49,164.18,232.17,164.65Z"/><path class="cls-13" d="M222.82,163.65l10,2.27c.16,4.08-3.39,1.44-4.81,2.66C225.94,167.29,222.54,167.41,222.82,163.65Z"/><path class="cls-7" d="M219.7,171.49c-1.13-1.93-3.33-4.44,1.59-3.54a33.16,33.16,0,0,1,5,1.76C225.53,175.54,222,171.05,219.7,171.49Z"/><path class="cls-7" d="M53.15,155.88c1.09-2.56,10.47.52,4.62-6.77-3,3.12-7.52,1.45-11,3.28C47.94,155.87,50.87,155.24,53.15,155.88Z"/><path class="cls-13" d="M62.55,155.59,52.4,157.1c-.47,4.05,3.27,1.7,4.6,3C59.16,159,62.54,159.36,62.55,155.59Z"/><path class="cls-7" d="M65.06,163.65c1.27-1.84,3.65-4.17-1.32-3.65a33.16,33.16,0,0,0-5.15,1.37C58.95,167.24,62.85,163,65.06,163.65Z"/><path class="cls-14" d="M55.16,63.33c.75,2.09,4.73,1,4.25,3.65-.31,1.73-2.81.54-4.26,1-1.67-.57-4.22-.67-4.26-2.7C50.84,62.5,53.69,64,55.16,63.33Z"/><path class="cls-15" d="M98.45,231.5l-.3,4.74c-2.29-1.77.28-5.48-3-7.11-1.38-.68.24-1.83,1.14-2.46,1.21-.84,2.61-1.33,3.86-.41s.24,1.94-.4,2.87A22.7,22.7,0,0,0,98.45,231.5Z"/><path class="cls-15" d="M100.61,223.35c-3.55,2.47-5.68,2.2-7.33-.44a1.89,1.89,0,0,1,.22-1.79C96.61,219.45,97.55,222.76,100.61,223.35Z"/><path class="cls-1" d="M60.65,60.58c-2.34,0-3.93-1.56-5.72-2.72,3.6-.58,3.61-3.72,4.49-6.26,3.32-9.55,8.38-11.86,17.59-7.54,4.57,2.14,8.78,5.05,13.17,7.58,2.14,1.23,4.09,3.25,6.95,1.93-3.05,3.09-5.08,7.3-9.56,8.85-4-.93-6.59-4.13-9.71-6.39C69.95,50.29,64.92,51.48,60.65,60.58Z"/><path class="cls-1" d="M59.45,102.88c-3.63,0-2.61-3.09-2.68-4.69-.39-9.19-.4-18.39-.53-27.59,4.48-1.92,2.87,1.89,2.91,3.4C59.38,83.62,59.38,93.25,59.45,102.88Z"/><path class="cls-16" d="M186,149a21.35,21.35,0,0,1-18.06-23.37c.88-9.27,10.68-18.63,20.64-18.32,11.12.35,19.32,7.3,21.12,19.1,1.53,10.07-6.78,20.27-17.74,22.58A6.37,6.37,0,0,1,186,149Z"/><path class="cls-17" d="M105.16,175.23c-6.21.89-11.57-1.47-15.09-7.62-1.2-2.09-1.59-4.3-.27-6.44,3.23-5.22,7.82-8.68,14-9.17,7.27-.58,13.91,1.2,18.17,7.69,4,6-2,14.9-10.26,15.52C109.77,175.35,107.82,175.23,105.16,175.23Z"/><path class="cls-17" d="M187.91,176.23c-6.21.89-11.57-1.47-15.09-7.62-1.2-2.09-1.59-4.3-.27-6.44,3.23-5.22,7.82-8.68,14-9.17,7.27-.58,13.91,1.2,18.17,7.69,4,6-2,14.9-10.26,15.52C192.52,176.35,190.57,176.23,187.91,176.23Z"/><path class="cls-18" d="M188.89,115.44c7.69-.37,13,6.24,12.88,13.14a12.92,12.92,0,0,1-12.93,12.85,13.15,13.15,0,0,1-13.22-13.16C175.72,122.12,180.21,115,188.89,115.44Z"/><path class="cls-16" d="M105.8,149a21.35,21.35,0,0,1-18.06-23.37c.88-9.27,10.68-18.63,20.64-18.32,11.12.35,19.32,7.3,21.12,19.1,1.53,10.07-6.78,20.27-17.74,22.58A6.37,6.37,0,0,1,105.8,149Z"/><path class="cls-18" d="M108.7,115.44c7.69-.37,13,6.24,12.88,13.14a12.92,12.92,0,0,1-12.93,12.85,13.15,13.15,0,0,1-13.22-13.16C95.53,122.12,100,115,108.7,115.44Z"/><path class="cls-19" d="M147.15,181.6c-5.12.24-10,.35-14.14,3.47-1.5,1.12-3.2-.42-3.21-2.89,0-2.88.83-5.65,1.43-8.43a77.8,77.8,0,0,1,6.33-18.43c2.67-5.31,6.82-5.67,13.06-5,4.08.47,5.79,3.6,7.13,6.71a91.66,91.66,0,0,1,6.7,23.26,5.7,5.7,0,0,1-.28,3.74c-.67,1.23-1.56,1.84-2.78.94C157,181.78,151.94,181.87,147.15,181.6Z"/><path class="cls-20" d="M134.52,180.19c-2.25.74-1.33-1.11-1.21-1.74a48.57,48.57,0,0,1,1.79-7.32c1.73-4.88,2.48-10.15,5.69-14.45.35-.24.77-.56,1.16-.43,4,1.29,7.93.29,11.89-.06a94.05,94.05,0,0,1,7,21.37c.45,2.15.52,2.13-1,2.64-1-2.14-3.12-3-4.78-4.35-3.33-4.33-10.16-4.32-13.92,0C138.79,177.08,136.07,177.74,134.52,180.19Z"/><path class="cls-21" d="M134.52,180.19c.51-3.69,3.46-4,6.24-4.46a25.4,25.4,0,0,1,14.64,0c2.05.9,4.66,1.24,4.43,4.42A51,51,0,0,0,134.52,180.19Z"/><path class="cls-22" d="M153.84,156.17c-4.26,2.45-8.64,1.75-13,.5,1.4-3.86,8-5,11.59-2.07A15.56,15.56,0,0,1,153.84,156.17Z"/><path class="cls-23" d="M155.4,175.76l-14.64,0c-.27-1.48.95-2,1.82-2.67C146.16,170.27,154.21,172,155.4,175.76Z"/><rect class="cls-23" x="77.19" y="58.1" width="135.99" height="43.56" rx="15.8" ry="15.8"/><path class="cls-24" d="M103.87,92.56l-.18-24.05,5.68-.08,6,12.52-.08-12.33,5.12-.37.37,24.14-5.67-.1-6.31-12.5.1,12.5Z"/><path class="cls-24" d="M122.58,76.36q.67-8.08,8.53-8.08c.32,0,.66,0,1,0q8.13.92,8.31,7.53l-5.79.68q0-2.64-3.16-2.7t-3.25,2.34q0,1.39,6,2.47t6.08,6.86q-.18,6.78-8.18,7.18-9.15-.12-9.62-7.93l5.76-.77a3.35,3.35,0,0,0,3.67,3.31q2.49-.38,2.77-2-.1-1.74-6-3.09T122.58,76.36Z"/><path class="cls-24" d="M158.87,68.44l.27,5.71H147.57l0,3.52,8.36,0,.27,5.71h-8.55l.1,9.1-5.51-.08.18-24.05Z"/><path class="cls-24" d="M164.45,92.11l-4.66-23.72,5.38.28,3.57,16.42L172,68.34l6-.1,3.12,16.86,3.31-16.76,6-.1-5.21,24.14-8.4-.27L175,82.44l-2.14,9.93Z"/><rect class="cls-5" x="46.74" y="72.28" width="37.19" height="14.19" rx="5.38" ry="5.38"/><rect class="cls-5" x="205.13" y="72.28" width="36.14" height="14.19" rx="5.38" ry="5.38"/><rect class="cls-25" x="120.5" y="202.34" width="55.13" height="45.44" rx="4.26" ry="4.26"/><path class="cls-24" d="M139.43,230h7.42l-.23,4.93-14.21-.07.16-4.86q7.83-5.76,9-8.65a4.28,4.28,0,0,0,.38-1.54q0-1.21-1.48-1.21h-.65a2.26,2.26,0,0,0-2.57,2.49l-4.71-.16v-.23q0-6.41,7-6.41h.16q7.1,0,7.11,5.13,0,.45-.35,3.71T139.43,230Z"/><path class="cls-24" d="M163.81,221.37l-.12,5.17v.23q0,8.26-8.32,8.36l-7-.39.43-20.81,7.86.17Q163.75,214.91,163.81,221.37Zm-5.07,5,.07-5c0-.13,0-.27,0-.4q0-2.12-2.29-2.12h-.45l-2.7-.14L153,230.23l2.49.1h.16Q158.57,230.33,158.74,226.4Z"/><path class="cls-25" d="M145,139.62c0,1.67,0,3.34,0,5,0,.6-.1,1.21-1.42,1.18s-1.41-.6-1.41-1.21c0-3.3,0-6.6,0-9.9,0-.7.35-1.26,1.57-1.23s1.28.66,1.28,1.27C145,136.36,145,138,145,139.62Z"/><path class="cls-25" d="M151.51,137.67c0,1.14,0,2.28,0,3.42,0,.41-.1.83-1.42.8s-1.41-.41-1.41-.83c0-2.25,0-4.51,0-6.76,0-.48.35-.86,1.57-.84s1.28.45,1.28.86C151.49,135.44,151.51,136.55,151.51,137.67Z"/><ellipse class="cls-25" cx="143.57" cy="145.12" rx="2.64" ry="3.24"/><ellipse class="cls-25" cx="150.09" cy="141.89" rx="2.64" ry="3.24"/><rect class="cls-26" x="144.18" y="202.34" width="8.4" height="5.73"/><ellipse class="cls-27" cx="117.75" cy="213.47" rx="7.71" ry="9.66"/><ellipse class="cls-27" cx="175.95" cy="213.79" rx="7.71" ry="9.66"/></svg>